<svg xmlns="http://www.w3.org/2000/svg" height="768" preserveAspectRatio="none" style="display: block;" version="1.1" viewBox="0 0 2048 1024" width="1536">
<path d="M 0 0 L 2048 0 L 2048 1024 L 0 1024 L 0 0 z" fill="rgb(247,247,249)" transform="translate(0,0)"></path>
<path d="M 266.828 568.275 C 248.976 535.147 216.143 512.395 176.778 522.125 C 167.427 524.436 161.755 532.473 151.299 530.723 C 146.891 529.974 142.969 527.485 140.417 523.814 C 137.564 519.807 136.477 514.806 137.407 509.976 C 142.31 485.758 167.959 502.425 180.651 505.566 C 197.805 509.811 216.236 503.894 231.288 495.3 C 282.547 466.037 282.733 395.379 232.275 365.269 C 223.904 360.268 216.995 353.866 219.716 343.205 C 220.889 338.585 223.884 334.638 228.018 332.266 C 231.478 330.269 236.271 329.271 240.17 330.516 C 254.653 334.797 251.883 349.618 255.311 360.791 C 264.471 390.644 287.299 413.287 316.865 421.825 C 363.777 424.149 396.524 400.348 408.935 354.751 C 412.446 366.226 413.623 369.382 425.549 367.045 C 421.313 370.551 417.239 373.964 413.37 377.88 C 392.586 398.918 386.171 434.933 399.092 461.733 C 417.514 491.902 451.175 512.405 489.253 505.415 C 501.282 503.207 515.917 486.919 527.069 503.505 C 529.671 507.312 530.887 514.463 529.383 518.772 C 521.611 540.596 502.417 526.64 488.236 522.035 C 473.36 517.204 453.014 521.797 439.238 528.62 C 402.085 547.022 383.301 594.751 402.875 632.588 C 406.675 639.854 411.836 646.321 418.079 651.637 C 423.937 656.628 432.656 660.969 437.638 666.295 C 456.104 686.033 425.449 710.2 411.12 686.738 C 407.722 681.175 409.727 671.097 408.198 664.873 C 399.592 633.335 373.357 609.664 341.385 603.193 C 324.765 603.056 313.414 603.965 298.3 611.889 C 275.795 623.687 254.668 649.669 252.553 675.727 C 249.767 660.908 250.018 659.171 235.774 660.246 C 261.389 641.783 279.584 598.549 266.828 568.275 z" fill="rgb(9,228,253)" transform="translate(0,0)"></path>
<path d="M 266.828 568.275 C 248.976 535.147 216.143 512.395 176.778 522.125 C 167.427 524.436 161.755 532.473 151.299 530.723 C 146.891 529.974 142.969 527.485 140.417 523.814 C 137.564 519.807 136.477 514.806 137.407 509.976 C 142.31 485.758 167.959 502.425 180.651 505.566 C 197.805 509.811 216.236 503.894 231.288 495.3 C 282.547 466.037 282.733 395.379 232.275 365.269 C 223.904 360.268 216.995 353.866 219.716 343.205 C 220.889 338.585 223.884 334.638 228.018 332.266 C 231.478 330.269 236.271 329.271 240.17 330.516 C 254.653 334.797 251.883 349.618 255.311 360.791 C 264.471 390.644 287.299 413.287 316.865 421.825 C 328.061 426.117 339.54 428.57 350.376 432.749 C 323.051 434.837 299.9 442.212 281.077 463.715 C 265.715 481.263 258.403 504.669 259.499 527.953 C 260.061 539.906 266.986 558.693 266.828 568.275 z" fill="rgb(5,3,66)" transform="translate(0,0)"></path>
<path d="M 318.709 593.118 C 319.138 593.115 319.566 593.107 319.994 593.092 C 376.221 591.213 413.994 544.065 405.13 488.923 C 403.806 480.686 399.207 469.294 399.092 461.733 C 417.514 491.902 451.175 512.405 489.253 505.415 C 501.282 503.207 515.917 486.919 527.069 503.505 C 529.671 507.312 530.887 514.463 529.383 518.772 C 521.611 540.596 502.417 526.64 488.236 522.035 C 473.36 517.204 453.014 521.797 439.238 528.62 C 402.085 547.022 383.301 594.751 402.875 632.588 C 406.675 639.854 411.836 646.321 418.079 651.637 C 423.937 656.628 432.656 660.969 437.638 666.295 C 456.104 686.033 425.449 710.2 411.12 686.738 C 407.722 681.175 409.727 671.097 408.198 664.873 C 399.592 633.335 373.357 609.664 341.385 603.193 C 335.344 600.605 326.112 597.987 319.625 595.953 L 318.709 593.118 z" fill="rgb(5,3,66)" transform="translate(0,0)"></path>
<path d="M 319.625 595.953 C 318.477 595.591 315.134 594.852 314.735 593.601 C 315.339 592.809 317.818 593.106 318.709 593.118 L 319.625 595.953 z" fill="rgb(7,35,82)" transform="translate(0,0)"></path>
<path d="M 1679.91 368.29 C 1692.71 368.237 1706.08 368 1718.81 368.342 L 1718.92 598.688 C 1706 598.589 1692.14 598.234 1679.29 598.472 C 1677.58 588.093 1680.63 574.309 1678.42 562.462 C 1674.29 578.807 1665.47 594.291 1648.44 599.825 C 1631.89 605.167 1611.72 604.79 1596.12 596.309 C 1532.69 561.821 1540.98 437.973 1618.34 427.399 C 1645.72 423.658 1669.54 433.399 1677.76 462.798 C 1680.49 458.281 1678.54 426.162 1679.88 415.974 C 1679.98 400.08 1679.99 384.185 1679.91 368.29 z" fill="rgb(5,3,66)" transform="translate(0,0)"></path>
<path d="M 1679.88 415.974 C 1679.99 425.477 1680.66 461.953 1679.37 469.051 C 1677.64 466.669 1678.1 466.074 1677.76 462.798 C 1680.49 458.281 1678.54 426.162 1679.88 415.974 z" fill="rgb(199,194,213)" transform="translate(0,0)"></path>
<path d="M 1678.42 562.462 C 1678.46 561.748 1678.37 561.074 1678.86 560.589 C 1680.54 560.447 1680.1 567.236 1680.05 568.551 C 1679.66 578.206 1680.67 588.979 1679.29 598.472 C 1677.58 588.093 1680.63 574.309 1678.42 562.462 z" fill="rgb(199,194,213)" transform="translate(0,0)"></path>
<path d="M 1630.28 461.186 C 1655.28 459.316 1674.92 468.372 1679.19 494.848 C 1684.16 525.674 1680.95 562.057 1644.71 568.99 C 1633.73 569.133 1622.02 568.463 1613.01 561.759 C 1578.48 536.067 1584.46 470.319 1630.28 461.186 z" fill="rgb(247,247,249)" transform="translate(0,0)"></path>
<path d="M 1746.12 368.375 L 1784.97 368.149 L 1784.9 460.001 L 1787.75 460.005 C 1793.6 447.005 1802.61 434.231 1816.7 429.901 C 1917.32 398.997 1943.29 567.162 1861.9 599.879 C 1835.37 610.541 1799.28 601.1 1788.15 571.998 L 1784.64 572 L 1784.94 598.078 C 1772.06 598.157 1759.17 598.171 1746.29 598.12 L 1746.12 368.375 z" fill="rgb(5,3,66)" transform="translate(0,0)"></path>
<path d="M 1784.64 572 C 1784.6 570.832 1783.91 564.521 1785.2 564.492 C 1786.04 565.062 1787.59 570.573 1788.15 571.998 L 1784.64 572 z" fill="rgb(248,246,251)" transform="translate(0,0)"></path>
<path d="M 1784.9 460.001 L 1787.75 460.005 C 1787.28 461.589 1786.52 465.149 1785.53 466.234 L 1785.42 466.209 C 1784.8 465.131 1784.93 461.366 1784.9 460.001 z" fill="rgb(248,246,251)" transform="translate(0,0)"></path>
<path d="M 1820.38 460.164 C 1887.95 455.891 1888.06 554.815 1836.95 569.606 C 1779.8 581.536 1772.22 514.591 1792.03 476.915 C 1797.29 466.908 1809.64 462.214 1820.38 460.164 z" fill="rgb(247,247,249)" transform="translate(0,0)"></path>
<path d="M 655.204 467.957 C 659.973 454.237 665.417 435.787 680.478 430.964 C 753.689 407.524 790.28 485.785 773.829 547.173 C 761.56 592.959 727.173 614.235 681.618 598.47 C 668.609 593.968 660.698 578.975 656.443 567.031 C 654.088 571.801 655.876 604.465 654.821 614.022 C 654.366 629.155 654.76 645.616 654.853 660.85 L 615.922 660.705 L 615.786 431.052 L 655.145 431.105 L 655.204 467.957 z" fill="rgb(5,3,66)" transform="translate(0,0)"></path>
<path d="M 654.821 614.022 C 654.394 609.675 653.923 563.828 654.579 563.283 C 656.334 563.854 656.124 565.269 656.443 567.031 C 654.088 571.801 655.876 604.465 654.821 614.022 z" fill="rgb(199,194,213)" transform="translate(0,0)"></path>
<path d="M 687.947 460.296 C 738.304 458.704 751.382 511.366 732.599 549.848 C 727.448 560.401 715.562 566.891 704.353 569.706 C 676.675 571.774 657.507 558.705 653.047 530.486 C 650.276 512.95 651.259 489.809 661.652 474.643 C 668.09 465.247 677.163 461.909 687.947 460.296 z" fill="rgb(247,247,249)" transform="translate(0,0)"></path>
<path d="M 1329.75 428.367 C 1332.35 428.137 1334.95 428.003 1337.56 427.963 C 1355.79 427.83 1376.14 432.419 1389.37 445.698 C 1409.23 465.642 1404.84 499.794 1404.81 525.757 L 1405.05 599.889 C 1392.48 599.727 1379.92 599.705 1367.36 599.823 C 1367.36 588.241 1367.41 577.047 1366.83 565.466 C 1359.78 594.205 1340.84 605.863 1311.49 603.253 C 1296.39 601.911 1283.24 595.981 1273.46 583.998 C 1272.45 582.462 1271.51 580.882 1270.65 579.262 C 1263.72 566.046 1262.18 548.565 1266.83 534.517 C 1276.09 505.924 1311.98 500.762 1337.85 500.809 C 1354.37 500.839 1378.38 500.711 1364.29 475.96 C 1360.33 468.954 1353.72 463.839 1345.94 461.772 C 1325.97 456.384 1312.54 465.117 1307.44 484.401 C 1295.63 484.685 1282.84 484.444 1270.95 484.441 C 1275.94 448.401 1295.19 432.776 1329.75 428.367 z" fill="rgb(5,3,66)" transform="translate(0,0)"></path>
<path d="M 1360.49 527.425 C 1362.29 526.898 1363.02 527.105 1364.86 527.297 C 1365.06 527.571 1365.67 528.313 1365.72 528.601 C 1371.56 567.562 1338.2 579.653 1309.51 568.741 C 1298.93 562.172 1295.34 547.603 1303.04 538.81 C 1312.54 527.971 1346.46 528.706 1360.49 527.425 z" fill="rgb(247,247,249)" transform="translate(0,0)"></path>
<path d="M 799.202 368.32 C 812.081 368.317 824.96 368.393 837.838 368.549 L 837.906 468.399 C 846.357 439.698 860.804 426.765 891.171 426.888 C 951.727 427.132 945.265 499.376 945.142 538.701 L 944.986 599.778 L 908.105 599.639 L 907.856 534.959 C 907.751 516.884 910.197 480.192 896.776 469.935 C 866.509 446.804 837.154 468.77 836.438 503.207 C 835.735 536.999 836.124 567.515 836.328 599.775 L 798.999 599.658 C 798.987 523.016 798.161 444.836 799.202 368.32 z" fill="rgb(5,3,66)" transform="translate(0,0)"></path>
<path d="M 948.559 430.915 L 989.105 431.04 C 991.711 442.306 997.338 459.276 1000.98 470.851 C 1010.58 501.333 1020.86 531.492 1030.54 562.001 C 1031.59 559.253 1032.52 556.474 1033.43 553.676 C 1046.68 512.855 1059.12 471.764 1072.62 431.026 C 1086.07 431.138 1099.52 431.172 1112.97 431.128 C 1106.48 446.37 1100.09 466.074 1094.57 481.859 L 1068.5 555.775 C 1047.67 612.57 1038.8 686.043 957.445 658.275 L 957.737 627.023 C 977.678 634.268 999.528 636.157 1010.55 613.935 C 1012.21 610.595 1016.37 599.201 1015.09 595.518 C 1012.84 595.461 1012.19 595.411 1010.01 594.89 C 1007.57 591.463 997.946 563.18 995.835 557.561 L 948.559 430.915 z" fill="rgb(5,3,66)" transform="translate(0,0)"></path>
<path d="M 1174.72 428.395 C 1211.67 424.59 1240.48 445.405 1245.1 483.16 L 1208.62 483.117 C 1207.35 476.452 1207.2 473.387 1202.44 468.3 C 1190.94 456.006 1152.04 456.751 1153.15 479.024 C 1153.81 492.355 1170.11 496.591 1180.75 498.671 C 1198.48 502.54 1218.19 505.496 1232.6 517.582 C 1251.96 533.54 1251.94 565.291 1235.68 583.431 C 1221.23 599.553 1202.83 602.45 1182.46 603.632 C 1153.49 602.139 1119.54 590.012 1112.34 557.768 C 1111.63 554.622 1111.17 551.281 1110.66 548.088 C 1123.31 548.285 1135.96 548.269 1148.62 548.039 C 1155.82 569.224 1168.97 573.002 1190.05 571.161 C 1194.7 570.756 1204.7 567.857 1207.18 563.412 C 1224.91 531.686 1177.27 531.503 1158.8 525.848 C 1145.2 522.225 1125.38 513.065 1120.52 498.422 C 1105.76 454.008 1137.92 432.477 1174.72 428.395 z" fill="rgb(5,3,66)" transform="translate(0,0)"></path>
<path d="M 1521.24 486.509 C 1524.31 486.43 1526.56 486.519 1529.61 486.692 C 1531.32 491.033 1530.99 514.601 1531.03 521.047 L 1437.75 520.874 C 1434.89 520.952 1432.64 521.418 1430.48 519.801 C 1429.46 511.698 1430.11 495.69 1430.22 486.975 C 1460.31 486.465 1491.11 486.656 1521.24 486.509 z" fill="rgb(5,3,66)" transform="translate(0,0)"></path>
<path d="M 408.935 354.751 C 409.206 346.914 409.164 340.515 414.88 334.662 C 421.12 328.272 433.878 328.62 438.723 336.23 C 449.91 353.803 437.63 360.67 425.549 367.045 C 413.623 369.382 412.446 366.226 408.935 354.751 z" fill="rgb(5,3,66)" transform="translate(0,0)"></path>
<path d="M 235.774 660.246 C 250.018 659.171 249.767 660.908 252.553 675.727 C 252.442 683.929 250.212 691.504 241.992 694.765 C 237.595 696.507 232.671 696.335 228.405 694.292 C 217.215 689.029 215.377 673.63 224.629 665.385 C 227.492 662.833 232.137 661.373 235.774 660.246 z" fill="rgb(5,3,66)" transform="translate(0,0)"></path>
<metadata><recraft-signature>{"signed_by": "recraft", "signature_b64": "BxapnsepcjHG5UauIWSPiVXQ1Kp12ezQrXzd9XIQkjdoZt7GIz7CwbT0Eupgiq5DW95m5DPerbhV6416mFtRBQ==", "signing_algo": "Ed25519", "generation_timestamp": 1776768432, "identifier": "2da05099-664f-4896-a660-1d9038d2f6ce"}</recraft-signature></metadata></svg>