<svg xmlns="http://www.w3.org/2000/svg" height="768" preserveAspectRatio="none" style="display: block;" version="1.1" viewBox="0 0 2048 1024" width="1536">
<defs>
	<linearGradient gradientUnits="userSpaceOnUse" id="Gradient1" x1="367.8" x2="379.187" y1="343.195" y2="354.867">
		<stop class="stop0" offset="0" stop-color="rgb(226,192,187)" stop-opacity="1"></stop>
		<stop class="stop1" offset="1" stop-color="rgb(206,208,213)" stop-opacity="1"></stop>
	</linearGradient>
</defs>
<path d="M 0 0 L 2048 0 L 2048 1024 L 0 1024 L 0 0 z" fill="rgb(248,247,249)" transform="translate(0,0)"></path>
<path d="M 187.16 281.4 C 214.588 279.26 221.573 293.671 244.504 296.788 C 268.443 300.041 281.788 278.373 309.562 280.843 C 331.838 280.28 347.897 302.271 367.544 306.256 C 398.663 312.567 421.747 296.104 447.729 324.417 C 472.013 350.88 454.665 373.608 462.21 401.457 C 467.819 422.162 492.715 437.759 487.784 464.605 C 485.693 489.446 479.426 496.133 460.378 512.476 C 446.317 524.54 448.161 538.972 447.323 554.65 C 446.411 570.524 439.118 585.355 427.103 595.769 C 393.271 625.633 363.702 593.151 327.614 617.148 C 310.055 628.825 288.604 621.632 269.358 620.43 C 267.399 620.529 265.445 620.706 263.5 620.959 C 254.898 622.148 242.027 627.356 237.15 634.841 C 222.93 656.669 240.103 673.478 243.107 695.089 C 245.51 709.664 242.437 722.853 233.86 734.945 C 216.068 760.031 180.465 765.765 155.835 746.928 C 136.408 732.1 128.431 706.641 135.921 683.378 C 139.536 671.858 146.982 659.759 147.103 647.21 C 147.354 621.247 133.398 612.54 133.03 584.37 C 132.666 556.505 147.242 542.541 147.066 518.52 C 146.913 497.677 130.782 481.134 133.089 455.969 C 135.15 433.489 147.676 423.152 147.296 401.971 C 146.97 383.798 135.253 369.292 133.229 350.272 C 131.479 333.834 133.553 319.063 144.257 305.607 C 155.897 290.974 168.849 283.701 187.16 281.4 z" fill="rgb(14,5,56)" transform="translate(0,0)"></path>
<path d="M 255.465 379.195 C 272.855 378.685 282.424 386.463 298.299 388.631 C 323.667 392.048 347.314 375.953 368.972 397.141 C 390.244 417.952 381.578 430.179 377.433 453.407 C 374.088 472.155 382.383 493.598 365.045 510.561 C 355.162 520.232 343.728 522.879 330.629 523.116 C 312.201 519.87 290.163 516.711 273.368 527.106 C 266.126 531.588 249.04 545.141 240.977 539.217 C 219.092 523.14 245.436 485.333 245.466 464.428 C 245.492 446.806 241.073 437.559 235.153 421.415 C 228.868 400.26 234.334 385.589 255.465 379.195 z" fill="rgb(248,247,249)" transform="translate(0,0)"></path>
<path d="M 183.33 650.002 C 182.481 622.638 172.043 610.863 167.817 586.646 C 165.165 571.453 180.513 547.726 182.009 528.597 C 182.825 517.913 181.743 507.169 178.812 496.863 C 169.522 464.363 160.574 464.115 177.989 429.429 C 187.503 410.48 181.33 377.667 171.436 360.316 C 167.932 352.091 164.599 339.371 168.79 331.123 C 180.708 307.666 201.502 317.184 218.678 325.105 C 244.841 337.171 268.82 331.921 293.401 319.3 C 313.513 308.973 329.708 327.325 347.983 335.088 C 352.396 336.788 356.874 338.442 361.479 339.549 C 361.086 344.334 361.038 348.18 359.656 352.801 C 354.832 351.599 350.715 351.096 345.793 350.717 C 341.833 350.729 332.476 351.019 328.966 352.169 C 308.075 359.014 295.449 350.328 277.052 346.319 C 212.461 332.245 180.705 394.188 208.011 447.849 C 215.031 461.647 204.313 482.907 200.832 496.198 C 189.918 535.678 211.526 586.108 260.508 574.019 C 258.971 578.709 259.121 581.237 260.224 586.154 C 221.754 593.752 202.679 611.039 196.647 649.977 L 183.33 650.002 z" fill="rgb(245,149,76)" transform="translate(0,0)"></path>
<path d="M 347.983 335.088 C 352.396 336.788 356.874 338.442 361.479 339.549 C 361.086 344.334 361.038 348.18 359.656 352.801 C 354.832 351.599 350.715 351.096 345.793 350.717 C 345.231 343.681 345.446 341.505 347.983 335.088 z" fill="rgb(241,175,135)" transform="translate(0,0)"></path>
<path d="M 404.828 511.847 C 410.654 512.468 411.36 512.621 416.508 515.164 C 412.987 526.891 412.251 537.858 412.396 549.782 C 412.723 576.78 384.639 572.34 366.171 571.015 C 339.544 569.105 325.115 581.509 303.251 588.878 C 299.115 590.272 271.706 585.163 260.224 586.154 C 259.121 581.237 258.971 578.709 260.508 574.019 C 278.096 569.622 283.001 558.794 299.503 554.575 C 307.299 552.794 315.541 556.316 323.206 557.33 C 359.753 562.161 388.746 544.006 404.828 511.847 z" fill="rgb(190,229,248)" transform="translate(0,0)"></path>
<path d="M 404.828 511.847 C 408.244 503.964 411.923 494.215 411.919 485.534 C 411.986 467.066 403.679 449.583 424.565 440.012 C 445.303 430.508 462.36 459.834 452.711 471.148 C 435.559 491.26 427.269 485.197 416.508 515.164 C 411.36 512.621 410.654 512.468 404.828 511.847 z" fill="rgb(108,196,246)" transform="translate(0,0)"></path>
<path d="M 389.083 343.297 C 399.503 342.155 410.726 340.033 419.64 347.139 C 429.541 355.031 425.436 371.29 424.91 382.16 C 424.316 394.452 426.545 403.947 429.593 415.692 L 417.93 416.905 C 412.643 395.053 401.858 376.718 383.312 363.481 C 384.819 359.923 386.105 357.82 387.102 353.972 C 388.125 350.027 387.577 346.792 389.083 343.297 z" fill="rgb(190,229,248)" transform="translate(0,0)"></path>
<path d="M 185.049 678.379 C 197.829 676.379 209.821 685.089 211.874 697.861 C 213.926 710.633 205.266 722.661 192.503 724.766 C 179.664 726.884 167.55 718.162 165.486 705.315 C 163.421 692.468 172.193 680.39 185.049 678.379 z" fill="rgb(9,234,246)" transform="translate(0,0)"></path>
<path d="M 361.479 339.549 C 374.191 342.349 376.058 342.795 389.083 343.297 C 387.577 346.792 388.125 350.027 387.102 353.972 C 386.105 357.82 384.819 359.923 383.312 363.481 C 372.401 357.823 372.307 357.406 360.332 353.052 L 359.656 352.801 C 361.038 348.18 361.086 344.334 361.479 339.549 z" fill="url(#Gradient1)" transform="translate(0,0)"></path>
<path d="M 691.672 436.332 C 699.006 435.831 707.706 435.51 714.894 437.142 C 805.402 457.698 788.882 638.778 684.647 616.696 C 664.427 612.412 654.357 602.762 643.461 585.889 C 644.495 600.372 644.661 613.744 644.718 628.25 L 644.837 678.074 L 605.747 677.978 L 605.606 439.596 L 646 439.442 C 646.011 449.192 646.003 456.526 644.512 466.151 C 657.261 446.733 668.6 439.446 691.672 436.332 z" fill="rgb(14,5,56)" transform="translate(0,0)"></path>
<path d="M 683.135 470.139 C 720.264 467.616 734.906 495.763 734.804 528.38 C 734.722 554.671 723.42 578.491 695.456 583.941 C 644.571 587.155 631.81 525.656 652.809 489.827 C 659.519 478.377 670.608 472.862 683.135 470.139 z" fill="rgb(248,247,249)" transform="translate(0,0)"></path>
<path d="M 1792.77 372.141 L 1831.28 372.239 C 1831.04 400.089 1833.83 441.807 1830.03 467.507 C 1831.08 465.743 1832.16 464.002 1833.28 462.284 C 1851.99 433.713 1895.24 427.715 1921.68 446.371 C 1965.91 477.58 1964.53 552.412 1936.84 592.739 C 1932.42 598.594 1927.07 603.685 1921 607.811 C 1899.52 622.481 1868.21 621.756 1847.25 606.387 C 1838.99 600.332 1834.97 594.636 1829.34 586.321 C 1830.97 597.14 1831.04 603.988 1831.13 614.995 C 1818.36 614.828 1805.58 614.813 1792.81 614.949 L 1792.77 372.141 z" fill="rgb(14,5,56)" transform="translate(0,0)"></path>
<path d="M 1867.17 470.146 C 1920.89 467.64 1926.53 527.681 1907.69 565.098 C 1902.51 575.373 1891.5 581.05 1880.56 583.621 C 1850.45 586.662 1832.34 564.985 1830.06 536.949 C 1827.65 507.42 1833.84 477.306 1867.17 470.146 z" fill="rgb(248,247,249)" transform="translate(0,0)"></path>
<path d="M 1733 372.17 L 1769.88 372.02 C 1767.84 450.905 1769.21 535.627 1769.18 614.956 L 1733.5 614.969 C 1733.29 604.305 1733.56 596.817 1734.23 586.285 C 1714.31 618.938 1678.6 627.189 1645.33 610.076 C 1642.8 608.286 1640.13 606.32 1637.74 604.343 C 1594.06 568.215 1594.3 475.282 1644.13 444.584 C 1662.42 433.317 1694.32 432.601 1712.66 444.557 C 1723.42 451.573 1728.28 458.874 1734.46 469.589 C 1731.6 445.528 1732.97 397.936 1733 372.17 z" fill="rgb(14,5,56)" transform="translate(0,0)"></path>
<path d="M 1680.93 470.126 C 1704.91 468.412 1723.87 479.626 1729.71 503.451 C 1737.41 534.906 1732.14 574.064 1696.28 583.778 C 1686.6 584.418 1678.16 584.536 1669.31 579.413 C 1641.01 563.034 1638.85 516.648 1652.9 490.359 C 1659.16 478.641 1668.81 473.329 1680.93 470.126 z" fill="rgb(248,247,249)" transform="translate(0,0)"></path>
<path d="M 1369.62 436.411 C 1391.15 433.503 1416.71 439.463 1432.54 454.969 C 1439.72 461.962 1444.77 470.844 1447.1 480.588 C 1450.36 494.356 1449.37 523.109 1449.33 538.698 C 1449.17 564.113 1449.19 589.528 1449.4 614.943 L 1410.26 614.982 C 1410.42 604.16 1411.5 595.919 1413.63 585.384 C 1397.64 612.357 1378.85 621.594 1347.27 617.226 C 1330.04 614.842 1317.13 607.895 1306.62 593.66 C 1301.98 585.337 1299.52 575.977 1299.47 566.449 C 1299.11 539.891 1315.3 519.931 1340.41 513.638 C 1362.4 508.125 1387.55 509.176 1410.2 508.953 C 1410.44 499.516 1411.02 487.471 1404.83 479.903 C 1388.31 459.698 1347.62 463.818 1343.51 492.874 L 1305.65 492.624 C 1310.73 453.768 1332.76 439.604 1369.62 436.411 z" fill="rgb(14,5,56)" transform="translate(0,0)"></path>
<path d="M 1363.61 539.244 C 1377.42 538.382 1396.46 538.892 1410.66 538.864 C 1410.83 561.945 1408.05 575.076 1385.36 585.385 C 1383.99 585.774 1382.6 586.14 1381.21 586.482 C 1370.75 589.044 1357.83 589.457 1348.45 583.541 C 1342.9 580.051 1339.03 574.427 1337.76 567.995 C 1334.09 549.707 1348.19 541.85 1363.61 539.244 z" fill="rgb(248,247,249)" transform="translate(0,0)"></path>
<path d="M 794.873 372.475 L 832.911 372.428 C 833.042 395.95 834.547 448.262 830.907 468.927 C 834.616 463.355 837.421 458.588 841.936 453.678 C 862.698 431.096 906.647 428.91 928.507 451.022 C 937.338 459.955 944.069 472.207 946.732 484.594 C 951.145 505.117 949.778 527.471 949.7 548.5 C 949.557 570.668 949.562 592.837 949.715 615.004 L 910.612 614.944 C 910.758 590.004 910.663 565.062 910.328 540.124 C 910.426 522.194 913.232 491.325 900.12 478.48 C 880.83 459.713 841.014 471.32 835.124 497.814 C 831.604 513.645 832.741 533.06 832.765 549.381 L 832.919 614.537 C 820.015 614.471 806.817 614.721 793.888 614.828 C 793.849 591.62 792.722 377.449 794.873 372.475 z" fill="rgb(14,5,56)" transform="translate(0,0)"></path>
<path d="M 1085.77 439.658 C 1099.68 439.515 1113.96 439.737 1127.9 439.794 L 1084 564.775 C 1058.68 633.733 1059.09 686.202 970.846 675.495 L 970.759 641.602 C 987.257 642.673 1007.03 646.234 1017.62 629.843 C 1021.15 624.391 1026.18 614.784 1027.17 608.401 C 1025.66 605.249 1025.25 608.018 1020.31 605.874 C 1016.15 599.562 1002.26 563.939 998.76 555.203 C 983.193 516.897 967.983 478.447 953.131 439.858 L 995.826 439.59 C 1011.85 481.399 1028.02 526.656 1042.99 568.934 C 1057.44 532.198 1073.29 478.13 1085.77 439.658 z" fill="rgb(14,5,56)" transform="translate(0,0)"></path>
<path d="M 1193.67 436.371 C 1194.48 436.291 1195.28 436.222 1196.09 436.163 C 1235.98 433.256 1273.43 447.61 1276.57 492.942 L 1238.94 492.99 C 1236.85 483.679 1237.16 480.57 1228.95 474.052 C 1216.39 464.09 1187.97 464.942 1178.4 478.444 C 1175.67 482.294 1174.59 487.07 1175.39 491.72 C 1179.73 516.825 1276.26 504.918 1279.51 556.002 C 1282.31 600.122 1257.11 613.1 1219.15 617.929 C 1175.56 619.571 1138.88 609.098 1132.41 559.889 L 1170.02 560.379 C 1171.97 567.342 1174.85 574.549 1180.89 579.105 C 1192.73 589.176 1228.2 589.553 1237.51 576.031 C 1252.97 552.59 1220.22 546.77 1204.63 543.59 C 1178.25 538.209 1140.84 528.644 1136.81 496.707 C 1135.03 483.33 1138.69 469.796 1146.98 459.145 C 1158.64 444.17 1175.58 438.502 1193.67 436.371 z" fill="rgb(14,5,56)" transform="translate(0,0)"></path>
<path d="M 1471.43 508.349 C 1508.86 508.618 1546.28 508.637 1583.7 508.407 L 1583.58 543.564 C 1575.57 545.912 1485.56 543.98 1471.13 543.952 L 1471.43 508.349 z" fill="rgb(14,5,56)" transform="translate(0,0)"></path>
<metadata><recraft-signature>{"signed_by": "recraft", "signature_b64": "xgpcj/mmDbeA4ePcjwTjv5wEdKwghvh/i5qQst6WfM8+G+Hc4K8en/wEE56HmzRPsOgahQakDARXVJgN9MqmAQ==", "signing_algo": "Ed25519", "generation_timestamp": 1776764300, "identifier": "8e63e906-87ae-419c-a115-6ad13c2461c6"}</recraft-signature></metadata></svg>