<svg xmlns="http://www.w3.org/2000/svg" height="1024" preserveAspectRatio="none" style="display: block;" version="1.1" viewBox="0 0 2048 2048" width="1024">
<path d="M 0 0 L 2048 0 L 2048 2048 L 0 2048 L 0 0 z" fill="rgb(255,255,255)" transform="translate(0,0)"></path>
<path d="M 1481.58 429.418 C 1514.77 427.436 1547.4 438.682 1572.32 460.697 C 1653.7 531.577 1613.61 665.697 1513.3 692.309 C 1486.53 699.412 1459.31 699.913 1433.06 709.225 C 1396.01 722.194 1362.43 743.504 1334.93 771.512 C 1285.84 821.759 1251.63 884.623 1236.1 953.128 C 1230.12 979.551 1228.8 1001.59 1224.45 1027.56 C 1217.05 1073.64 1196.06 1116.46 1164.18 1150.54 C 1128.82 1188.31 1082.84 1214.48 1032.31 1225.6 C 1007.38 1230.86 988.473 1232.33 962.503 1239.8 C 911.262 1255 863.792 1280.81 823.172 1315.54 C 760.943 1369.25 715.999 1429.8 696.922 1510.67 C 682.633 1571.24 629.919 1616.02 567.107 1619.41 C 533.781 1621.51 501.008 1608.68 475.935 1587.03 C 450.593 1564.72 435.137 1533.26 432.96 1499.57 C 428.137 1432.77 466.769 1376.4 530.993 1356.45 C 547.333 1351.37 561.614 1350.55 577.96 1347.65 C 592.758 1344.88 607.297 1340.87 621.425 1335.67 C 656.671 1322.55 690.747 1298.93 717.014 1272.08 C 765.556 1222.45 798.981 1158.7 813.262 1090.84 C 818.162 1067.56 819.732 1047.81 822.816 1024.54 C 829.322 975.439 851.36 930.707 885.052 894.49 C 921.173 855.662 968.48 831.648 1020.27 821.692 C 1039.29 818.036 1058.71 816.149 1077.49 810.879 C 1137.66 794.634 1192.94 763.912 1238.51 721.392 C 1287.41 676.344 1332.28 610.927 1348.74 546.432 C 1365.62 480.243 1411.63 434.472 1481.58 429.418 z" fill="rgb(22,6,64)" transform="translate(0,0)"></path>
<path d="M 1019.89 911.768 C 1081.5 909.316 1133.56 957.028 1136.48 1018.63 C 1139.39 1080.22 1092.07 1132.64 1030.5 1136.01 C 968.267 1139.43 915.17 1091.49 912.224 1029.24 C 909.278 966.982 957.611 914.247 1019.89 911.768 z" fill="rgb(7,231,250)" transform="translate(0,0)"></path>
<path d="M 1473.63 892.412 C 1505.98 889.815 1541.07 901.223 1566.28 921.672 C 1593.81 943.733 1611.35 975.907 1614.98 1011 C 1618.65 1047.02 1606.66 1082.21 1583.98 1110.06 C 1549.03 1153 1510.98 1152.41 1462.31 1157.78 C 1330.26 1172.34 1205.41 1288.34 1167.23 1413.59 C 1162.57 1428.86 1159.25 1444.5 1157.29 1460.34 C 1156.34 1468.16 1155.45 1477.26 1155.04 1485.12 C 1151.32 1555.67 1105.44 1611.56 1033.25 1618.44 C 999.613 1621.8 965.943 1609.93 939.643 1589.16 C 913.492 1568.5 894.688 1532.8 891.709 1499.32 C 884.651 1419.98 935.047 1361.19 1004.42 1330.18 C 1021.48 1322.55 1040.08 1317.99 1057.73 1312.4 C 1079.1 1305.78 1099.9 1297.44 1119.92 1287.47 C 1162.05 1266.12 1203.88 1232.09 1235.14 1196.68 C 1267.6 1160 1293.09 1117.71 1310.38 1071.88 C 1326.96 1027.64 1329.23 991.453 1363.3 951.409 C 1392.79 916.753 1428.33 896.803 1473.63 892.412 z" fill="rgb(22,6,64)" transform="translate(0,0)"></path>
<path d="M 1021.87 429.404 C 1094.04 429.265 1150.01 479.884 1156.01 552.053 C 1162.3 627.587 1108.75 690.786 1041.92 718.474 C 1025.03 725.471 1008.77 728.991 991.45 734.2 C 971.95 740.192 952.949 747.702 934.623 756.662 C 842.868 801.874 763.368 888.752 733.339 987.118 C 729.801 998.708 727.091 1010.69 723.507 1022.3 C 714.547 1050.67 699.912 1076.93 680.49 1099.48 C 651.328 1132.86 614.17 1152.03 569.968 1154.96 C 535.4 1155.25 504.911 1146.86 478.203 1123.93 C 451.586 1100.67 435.286 1067.8 432.882 1032.54 C 430.269 998.128 441.459 964.095 463.98 937.95 C 484.502 914.412 514.885 896.673 545.978 892.469 C 557.229 890.948 570.28 891.015 581.785 890.226 C 711.93 881.305 839.197 764.432 878.185 642.83 C 883.499 626.141 887.274 609 889.462 591.622 C 891.231 577.83 891.674 563.658 893.751 550.042 C 900.783 503.933 927.927 461.82 970.775 441.613 C 988.343 433.329 1002.54 430.564 1021.87 429.404 z" fill="rgb(22,6,64)" transform="translate(0,0)"></path>
<path d="M 1348.04 1231.83 L 1349.36 1232.98 C 1363.28 1302.12 1417.91 1337.94 1484.52 1348.76 C 1510.56 1353 1534.16 1360.35 1556.07 1375.42 C 1586.52 1395.96 1607.39 1427.92 1613.95 1464.06 C 1620.55 1498.97 1612.98 1535.07 1592.9 1564.38 C 1572.01 1594.52 1542.87 1611.16 1507.24 1617.75 C 1430.85 1630.5 1355.32 1573.13 1348.33 1497.28 C 1342.18 1430.7 1311.24 1359 1240.92 1338.41 C 1260.95 1305.11 1315.13 1252.81 1348.04 1231.83 z" fill="rgb(22,6,64)" transform="translate(0,0)"></path>
<path d="M 553.58 429.409 C 569.329 428.007 585.947 430.379 600.992 434.942 C 647.695 449.105 683.334 485.654 695.626 533.011 C 699.433 547.677 700.376 560.239 702.974 575.029 C 706.881 596.185 714.029 616.611 724.165 635.587 C 744.277 673.591 769.657 696.666 810.583 709.249 C 786.522 743.866 735.667 794.178 700.64 817.373 L 698.505 806.239 C 697.276 801.786 696.236 796.98 694.689 792.658 C 676.491 741.127 623.063 705.911 570.318 698.379 C 536.08 693.489 507.88 686.126 480.465 663.328 C 453.347 640.837 436.238 608.522 432.88 573.451 C 426.079 497.425 477.451 435.797 553.58 429.409 z" fill="rgb(22,6,64)" transform="translate(0,0)"></path>
<metadata><recraft-signature>{"signed_by": "recraft", "signature_b64": "vN7upKwh+FJxYApC4RZuPiyZjQETcFfpmBKocVj/KVAMd8sE8gRnwx03EZiFc/FjrKs7DJ3XSJbk5rfumsyKBQ==", "signing_algo": "Ed25519", "generation_timestamp": 1776768434, "identifier": "9e786496-85ac-4a99-81dd-a4fc07001f0e"}</recraft-signature></metadata></svg>