<svg xmlns="http://www.w3.org/2000/svg" height="1024" preserveAspectRatio="none" style="display: block;" version="1.1" viewBox="0 0 2048 2048" width="1024">
<path d="M 0 0 L 2048 0 L 2048 2048 L 0 2048 L 0 0 z" fill="rgb(255,255,255)" transform="translate(0,0)"></path>
<path d="M 783.649 274.204 C 830.446 274.153 876.151 290.81 909.474 324.115 C 910.751 325.378 912.006 326.663 913.238 327.97 C 949.144 294.677 989.432 276.018 1039.01 274.548 C 1104.3 273.628 1170.63 275.876 1235.88 274.75 C 1301.64 271.468 1359.72 286.822 1419.73 312.72 C 1429.05 316.744 1450.99 326.142 1459.05 331.06 C 1473.85 338.459 1488.21 347.808 1502.14 356.761 C 1588.93 412.275 1658.67 490.714 1703.65 583.401 C 1713.75 604.071 1723.46 630.651 1731.18 652.421 C 1764.54 745.863 1774.55 846.046 1760.34 944.242 C 1758.91 954.318 1752.96 990.438 1749.99 998.507 C 1748.21 1013.37 1738.63 1042.86 1733.66 1057.27 C 1699 1158.19 1636.11 1247.03 1552.45 1313.25 C 1483.54 1367.41 1419.88 1393.04 1335.18 1409.47 C 1298.27 1414.62 1275.62 1413.41 1241.13 1415.86 L 1140.22 1415.8 C 1112.79 1415.67 1082.02 1417.01 1055.18 1415.94 C 1034.28 1415.78 1018.54 1413.62 999.253 1422.76 C 952.696 1444.82 957.338 1482 957.309 1525.31 L 957.221 1587.7 C 956.963 1639.2 954.967 1671.49 925.68 1717.19 C 913.426 1736.62 898.027 1753.88 880.112 1768.26 C 847.555 1794.34 808.304 1810.72 766.863 1815.5 C 740.095 1815.82 713.325 1815.89 686.556 1815.73 C 666.772 1815.68 644.892 1816.52 625.355 1814.41 C 514.084 1802.41 428.57 1715.89 426.867 1602.51 C 426.377 1562.42 444.295 1524.38 471.473 1495.55 C 434.946 1452.96 428.558 1418.02 429.109 1364.03 C 430.932 1333.61 429.836 1292.47 429.821 1261.58 C 429.12 1246.58 429.75 1226.05 429.764 1210.48 L 429.735 1112.79 L 429.341 1031.05 C 429.27 1016.12 428.817 996.128 429.82 981.565 C 429.499 978.142 429.73 974.088 429.735 970.559 C 429.658 969.759 429.589 968.958 429.528 968.157 L 429.026 937.563 C 427.627 888.255 436.717 857.359 469.788 819.396 C 424.411 773.755 417.569 714.693 447.946 658.318 C 424.707 626.379 429.733 588.628 430.949 551.078 C 430.883 538.755 432.96 525.536 435.291 513.451 C 462.317 373.321 601.178 272.448 741.178 274.792 C 754.982 275.024 769.704 274.393 783.649 274.204 z" fill="rgb(13,6,52)" transform="translate(0,0)"></path>
<path d="M 783.649 274.204 C 830.446 274.153 876.151 290.81 909.474 324.115 C 910.751 325.378 912.006 326.663 913.238 327.97 C 949.144 294.677 989.432 276.018 1039.01 274.548 C 1104.3 273.628 1170.63 275.876 1235.88 274.75 C 1248.64 274.898 1261.4 274.903 1274.16 274.767 C 1260 299.444 1257.2 329.649 1264.47 356.948 C 1266 362.864 1267.91 368.676 1270.18 374.349 C 1269.36 377.123 1254.07 403.329 1251.36 407.767 C 1246.58 415.568 1237.09 451.056 1234.52 453.28 L 1231.33 453.451 C 1205.39 451.878 1187.74 451.804 1162.62 459.562 C 1116.86 475.849 1086.57 499.357 1065.56 543.909 C 1063.7 547.819 1061.97 551.79 1060.37 555.817 C 1051.86 574.778 1048.23 601.99 1047.79 622.671 C 1017.19 622.711 995.887 620.01 965.699 628.692 C 920.839 643.086 891.473 668.599 870.08 710.286 L 869.706 711.023 C 860.011 734.31 859.572 740.103 856.512 764.536 C 852.651 795.361 867.609 843.175 832.715 857.278 C 828.547 858.95 824.155 859.998 819.681 860.387 C 775.808 866.127 738.307 883.243 710.743 918.988 C 705.107 926.397 700.056 934.233 695.636 942.425 C 676.007 989.435 679.983 1012.59 680.148 1062.49 L 666.3 1065.74 C 589.23 1051.11 533.006 1026.02 525.915 940.421 C 494.632 927.783 460.314 920.422 429.026 937.563 C 427.627 888.255 436.717 857.359 469.788 819.396 C 424.411 773.755 417.569 714.693 447.946 658.318 C 424.707 626.379 429.733 588.628 430.949 551.078 C 430.883 538.755 432.96 525.536 435.291 513.451 C 462.317 373.321 601.178 272.448 741.178 274.792 C 754.982 275.024 769.704 274.393 783.649 274.204 z" fill="rgb(13,6,52)" transform="translate(0,0)"></path>
<path d="M 783.649 274.204 C 830.446 274.153 876.151 290.81 909.474 324.115 C 910.751 325.378 912.006 326.663 913.238 327.97 C 949.144 294.677 989.432 276.018 1039.01 274.548 C 1104.3 273.628 1170.63 275.876 1235.88 274.75 C 1248.64 274.898 1261.4 274.903 1274.16 274.767 C 1260 299.444 1257.2 329.649 1264.47 356.948 C 1266 362.864 1267.91 368.676 1270.18 374.349 C 1269.36 377.123 1254.07 403.329 1251.36 407.767 C 1246.58 415.568 1237.09 451.056 1234.52 453.28 L 1231.33 453.451 C 1205.39 451.878 1187.74 451.804 1162.62 459.562 C 1116.86 475.849 1086.57 499.357 1065.56 543.909 C 1063.7 547.819 1061.97 551.79 1060.37 555.817 C 1051.86 574.778 1048.23 601.99 1047.79 622.671 C 1017.19 622.711 995.887 620.01 965.699 628.692 C 920.839 643.086 891.473 668.599 870.08 710.286 L 869.706 711.023 C 863.223 697.446 863.253 577.319 863.017 554.704 C 821.642 552.768 790.692 565.622 782.162 610.077 C 781.429 551.948 787.501 526.702 759.713 473.519 C 801.427 466.188 815.616 463.02 859.295 463.103 L 859.549 455.144 C 859.726 448.367 859.965 441.144 859.08 434.419 C 853.734 393.799 819.99 375.565 782.571 374.824 C 788.936 351.751 789.524 296.982 783.649 274.204 z" fill="rgb(242,153,75)" transform="translate(0,0)"></path>
<path d="M 1039.01 274.548 C 1104.3 273.628 1170.63 275.876 1235.88 274.75 C 1248.64 274.898 1261.4 274.903 1274.16 274.767 C 1260 299.444 1257.2 329.649 1264.47 356.948 C 1266 362.864 1267.91 368.676 1270.18 374.349 L 1041.04 374.822 C 1034.74 372.06 1033.41 350.485 1032.82 344.232 C 1030.58 320.604 1032.5 297.372 1039.01 274.548 z" fill="rgb(13,6,52)" transform="translate(0,0)"></path>
<path d="M 1270.18 374.349 C 1269.36 377.123 1254.07 403.329 1251.36 407.767 C 1246.58 415.568 1237.09 451.056 1234.52 453.28 L 1231.33 453.451 C 1205.39 451.878 1187.74 451.804 1162.62 459.562 C 1127.78 452.804 1097.95 454.706 1062.69 454.753 C 1029.15 454.872 995.611 454.695 962.076 454.222 C 963.713 407.555 993.382 374.862 1041.04 374.822 L 1270.18 374.349 z" fill="rgb(255,255,255)" transform="translate(0,0)"></path>
<path d="M 963.996 554.848 L 1021.15 554.982 C 1033.01 555.009 1049 554.612 1060.37 555.817 C 1051.86 574.778 1048.23 601.99 1047.79 622.671 C 1017.19 622.711 995.887 620.01 965.699 628.692 C 963.082 622.809 964.023 565.139 963.996 554.848 z" fill="rgb(255,255,255)" transform="translate(0,0)"></path>
<path d="M 525.915 940.421 C 525.823 923.349 533.129 902.374 542.55 888.48 C 559.901 862.893 581.914 861.811 609.876 862.238 C 631.491 862.568 657.839 863.816 678.636 859.892 C 678.409 893.377 679.544 911.72 695.636 942.425 C 676.007 989.435 679.983 1012.59 680.148 1062.49 L 666.3 1065.74 C 589.23 1051.11 533.006 1026.02 525.915 940.421 z" fill="rgb(255,255,255)" transform="translate(0,0)"></path>
<path d="M 782.162 610.077 C 790.692 565.622 821.642 552.768 863.017 554.704 C 863.253 577.319 863.223 697.446 869.706 711.023 C 860.011 734.31 859.572 740.103 856.512 764.536 C 852.651 795.361 867.609 843.175 832.715 857.278 C 828.547 858.95 824.155 859.998 819.681 860.387 C 807.909 859.558 789.355 853.328 777.221 850.042 C 776.554 833.665 776.389 819.018 777.5 802.605 C 778.982 780.704 783.13 757.728 781.811 735.957 C 782.496 694.172 781.731 651.967 782.162 610.077 z" fill="rgb(255,255,255)" transform="translate(0,0)"></path>
<path d="M 581.731 448.131 C 614.906 469.261 670.026 508.171 681.156 548.683 C 682.796 554.653 682.067 576.416 682.2 584.016 C 657.572 578.705 620.722 577.266 595.682 578.939 C 579.127 580.679 566.183 582.048 549.846 585.791 C 537.481 579.723 530.908 561.822 530.551 548.799 C 534.734 508.825 556.068 477.383 581.731 448.131 z" fill="rgb(255,255,255)" transform="translate(0,0)"></path>
<path d="M 666.885 387.196 C 704.768 372.602 742.691 374.723 782.571 374.824 C 819.99 375.565 853.734 393.799 859.08 434.419 C 859.965 441.144 859.726 448.367 859.549 455.144 L 859.295 463.103 C 815.616 463.02 801.427 466.188 759.713 473.519 C 731.083 431.561 706.825 415.274 666.885 387.196 z" fill="rgb(255,255,255)" transform="translate(0,0)"></path>
<path d="M 682.239 684.897 C 682.122 704.213 685.649 736.371 672.087 749.584 C 668.693 752.89 658.549 759.969 653.836 760.569 C 629.41 763.674 600.976 761.453 576.24 761.865 C 563.155 762.083 550.928 760.057 542.156 750.416 C 536.143 743.914 532.991 735.272 533.405 726.426 C 534.989 695.233 568.126 679.244 596.054 680.392 C 605.025 681.088 614.77 680.345 623.864 680.525 C 642.545 680.896 663.82 681.642 682.239 684.897 z" fill="rgb(255,255,255)" transform="translate(0,0)"></path>
<path d="M 595.682 578.939 C 620.722 577.266 657.572 578.705 682.2 584.016 C 682.852 615.214 683.157 653.671 682.239 684.897 C 663.82 681.642 642.545 680.896 623.864 680.525 C 614.77 680.345 605.025 681.088 596.054 680.392 C 596.041 647.179 596.6 611.995 595.682 578.939 z" fill="rgb(242,153,75)" transform="translate(0,0)"></path>
<path d="M 430.949 551.078 C 467.997 540.421 493.118 543.006 530.551 548.799 C 530.908 561.822 537.481 579.723 549.846 585.791 C 504.444 599.825 474.701 618.652 447.946 658.318 C 424.707 626.379 429.733 588.628 430.949 551.078 z" fill="rgb(242,153,75)" transform="translate(0,0)"></path>
<path d="M 781.811 735.957 C 783.13 757.728 778.982 780.704 777.5 802.605 C 776.389 819.018 776.554 833.665 777.221 850.042 C 789.355 853.328 807.909 859.558 819.681 860.387 C 775.808 866.127 738.307 883.243 710.743 918.988 C 705.107 926.397 700.056 934.233 695.636 942.425 C 679.544 911.72 678.409 893.377 678.636 859.892 C 696.436 855.657 718.537 846.103 732.602 834.368 C 766.963 805.703 776.79 778.202 781.811 735.957 z" fill="rgb(242,153,75)" transform="translate(0,0)"></path>
<path d="M 1489.54 898.048 C 1505.78 886.984 1569.94 888.186 1589.44 893.9 C 1619.9 902.627 1640.51 908.855 1661.58 933.145 C 1659.13 945.719 1654.06 966.305 1652.5 977.84 C 1660.84 969.16 1667.31 964.381 1678.97 960.951 C 1706.85 952.753 1742.62 963.406 1749.26 995.047 L 1749.99 998.507 C 1748.21 1013.37 1738.63 1042.86 1733.66 1057.27 C 1699 1158.19 1636.11 1247.03 1552.45 1313.25 C 1483.54 1367.41 1419.88 1393.04 1335.18 1409.47 C 1298.27 1414.62 1275.62 1413.41 1241.13 1415.86 L 1241.12 1344 C 1241.13 1313.9 1242.6 1295.13 1236.34 1265.29 C 1228.6 1242.49 1223.4 1229.87 1208.13 1210.17 C 1203.19 1205.32 1198.69 1199.39 1193.47 1194.61 C 1173.64 1176.48 1156.54 1166.78 1131.72 1157.58 C 1139.19 1143.82 1145.52 1130.44 1154 1117.19 C 1159.84 1108.05 1165.88 1101.56 1171.85 1093.04 L 1144.96 1092.98 L 1144.95 993.077 C 1189.23 993.431 1231.67 998.988 1270.9 974.909 C 1298.15 958.183 1309.78 940.726 1323.03 912.759 L 1422.14 925.833 L 1423.82 919.879 C 1443.68 910.721 1467.81 901.9 1489.54 898.048 z" fill="rgb(242,153,75)" transform="translate(0,0)"></path>
<path d="M 1589.44 893.9 C 1619.9 902.627 1640.51 908.855 1661.58 933.145 C 1659.13 945.719 1654.06 966.305 1652.5 977.84 C 1660.84 969.16 1667.31 964.381 1678.97 960.951 C 1706.85 952.753 1742.62 963.406 1749.26 995.047 L 1749.99 998.507 C 1748.21 1013.37 1738.63 1042.86 1733.66 1057.27 C 1699 1158.19 1636.11 1247.03 1552.45 1313.25 C 1483.54 1367.41 1419.88 1393.04 1335.18 1409.47 C 1336.52 1378.31 1334.04 1331.83 1337.3 1303.4 C 1342.39 1262.67 1350.45 1227.57 1386.8 1202.52 C 1396.45 1195.86 1410.77 1189.39 1421.37 1183.38 C 1443.04 1171 1463.21 1156.17 1481.49 1139.18 L 1488.43 1146.12 C 1491.38 1108.09 1509.81 1080.61 1543.63 1063.46 C 1540.57 1057.21 1557.87 1023.9 1561.36 1015.4 C 1576.76 969.516 1583.2 942.368 1589.44 893.9 z" fill="rgb(13,6,52)" transform="translate(0,0)"></path>
<path d="M 1481.49 1139.18 L 1488.43 1146.12 C 1499.69 1163.24 1517.3 1180 1529.9 1196.17 C 1475 1255.26 1419.47 1292.63 1337.3 1303.4 C 1342.39 1262.67 1350.45 1227.57 1386.8 1202.52 C 1396.45 1195.86 1410.77 1189.39 1421.37 1183.38 C 1443.04 1171 1463.21 1156.17 1481.49 1139.18 z" fill="rgb(255,255,255)" transform="translate(0,0)"></path>
<path d="M 1589.44 893.9 C 1619.9 902.627 1640.51 908.855 1661.58 933.145 C 1659.13 945.719 1654.06 966.305 1652.5 977.84 C 1639.42 1022.32 1621.51 1078.18 1593.39 1116 C 1582.67 1104.75 1572.01 1093.43 1561.42 1082.05 C 1557.42 1077.76 1547.64 1066.8 1543.63 1063.46 C 1540.57 1057.21 1557.87 1023.9 1561.36 1015.4 C 1576.76 969.516 1583.2 942.368 1589.44 893.9 z" fill="rgb(255,255,255)" transform="translate(0,0)"></path>
<path d="M 1489.54 898.048 C 1505.78 886.984 1569.94 888.186 1589.44 893.9 C 1583.2 942.368 1576.76 969.516 1561.36 1015.4 C 1533.11 997.65 1499.36 989.221 1466.23 987.905 C 1476.46 960.89 1485.17 926.51 1489.54 898.048 z" fill="rgb(13,6,52)" transform="translate(0,0)"></path>
<path d="M 1423.82 919.879 C 1443.68 910.721 1467.81 901.9 1489.54 898.048 C 1485.17 926.51 1476.46 960.89 1466.23 987.905 C 1451.31 1025.72 1436.48 1046.86 1404.82 1071.45 C 1395.79 1044.57 1391.36 1036.06 1377.78 1011.36 C 1402.71 980.19 1409.92 962.955 1422.14 925.833 L 1423.82 919.879 z" fill="rgb(255,255,255)" transform="translate(0,0)"></path>
<path d="M 1208.13 1210.17 C 1211.84 1210.04 1241.88 1217.12 1248.87 1218.39 C 1245.41 1227.15 1243.32 1233.73 1241.23 1243.02 C 1240.3 1247.32 1239.51 1251.65 1238.86 1255.99 C 1238.26 1259.94 1238.11 1261.85 1236.34 1265.29 C 1228.6 1242.49 1223.4 1229.87 1208.13 1210.17 z" fill="rgb(255,255,255)" transform="translate(0,0)"></path>
<path d="M 1295.74 1071.04 C 1297.28 1072.98 1312.06 1114.62 1314.63 1120.91 C 1308.26 1126.83 1303.52 1131.96 1297.41 1137.97 C 1287.58 1133.05 1281.18 1128.9 1272.05 1122.94 C 1256.4 1111.69 1248.72 1104.94 1238.32 1088.74 C 1257.93 1085.49 1277.89 1079.92 1295.74 1071.04 z" fill="rgb(255,255,255)" transform="translate(0,0)"></path>
<path d="M 1144.93 722.041 C 1178.9 722.098 1216.13 718.765 1248.68 728.076 C 1253.18 729.364 1257.51 731.511 1261.89 732.797 C 1283.25 746.249 1298.19 755.577 1312.2 777.297 C 1337.71 816.846 1336.35 869.012 1323.03 912.759 C 1309.78 940.726 1298.15 958.183 1270.9 974.909 C 1231.67 998.988 1189.23 993.431 1144.95 993.077 L 1049.92 993.239 C 1025.23 993.204 993.006 997.583 974.26 979.253 C 958.894 964.227 956.888 949.518 957.039 929.033 C 957.416 878.119 957.194 827.202 957.568 776.294 C 957.674 761.43 960.99 749.25 971.833 738.517 C 978.876 731.615 986.048 725.532 996.202 723.783 C 1014.84 720.573 1036.76 721.858 1055.64 721.901 L 1144.93 722.041 z" fill="rgb(255,255,255)" transform="translate(0,0)"></path>
<path d="M 527.167 1604.05 C 539.868 1537.32 583.866 1561.26 632.663 1554.44 C 650.22 1551.98 665.71 1547.27 681.964 1540.12 C 681.992 1565.69 682.997 1597.98 681.947 1622.85 C 713.949 1650.23 766.728 1640.38 784.202 1600.51 C 785.034 1607.79 784.853 1615.12 784.952 1622.43 C 785.353 1652.22 784.47 1682.03 785.354 1711.8 C 780.114 1713.37 775.759 1714.71 770.357 1715.8 C 776.7 1742.59 776.608 1764.34 772.122 1791.73 C 771.217 1797.25 767.287 1811.68 766.863 1815.5 C 740.095 1815.82 713.325 1815.89 686.556 1815.73 C 666.772 1815.68 644.892 1816.52 625.355 1814.41 C 514.084 1802.41 428.57 1715.89 426.867 1602.51 C 457.483 1596.86 497.146 1594.63 527.167 1604.05 z" fill="rgb(242,153,75)" transform="translate(0,0)"></path>
<path d="M 527.167 1604.05 C 539.868 1537.32 583.866 1561.26 632.663 1554.44 C 650.22 1551.98 665.71 1547.27 681.964 1540.12 C 681.992 1565.69 682.997 1597.98 681.947 1622.85 C 680.433 1650.51 681.396 1687.98 681.595 1716.17 C 668.676 1716.19 655.757 1716.13 642.839 1716 C 631.13 1715.78 618.844 1715.13 607.576 1711.76 C 560.547 1697.71 525.759 1653.17 527.167 1604.05 z" fill="rgb(255,255,255)" transform="translate(0,0)"></path>
<path d="M 1731.18 652.421 C 1764.54 745.863 1774.55 846.046 1760.34 944.242 C 1758.91 954.318 1752.96 990.438 1749.99 998.507 L 1749.26 995.047 C 1742.62 963.406 1706.85 952.753 1678.97 960.951 C 1667.31 964.381 1660.84 969.16 1652.5 977.84 C 1654.06 966.305 1659.13 945.719 1661.58 933.145 C 1640.51 908.855 1619.9 902.627 1589.44 893.9 C 1569.94 888.186 1505.78 886.984 1489.54 898.048 C 1467.81 901.9 1443.68 910.721 1423.82 919.879 C 1434.05 878.293 1435.22 862.465 1432.56 819.978 C 1450.61 813.109 1469.69 805.363 1488.56 801.72 C 1494.67 801.892 1511.19 798.625 1518.96 798.004 C 1542.43 796.277 1566 796.474 1589.44 798.592 C 1615.14 801.892 1636.88 805.202 1661.95 811.691 C 1660.06 762.418 1649.17 724.338 1634.79 678.099 C 1668.11 693.879 1711.43 684.425 1731.18 652.421 z" fill="rgb(242,153,75)" transform="translate(0,0)"></path>
<path d="M 429.026 937.563 C 460.314 920.422 494.632 927.783 525.915 940.421 C 533.006 1026.02 589.23 1051.11 666.3 1065.74 C 629.908 1082.18 608.214 1099.7 593.546 1138.27 C 592.359 1141.44 591.234 1144.64 590.173 1147.86 C 578.395 1186.67 581.494 1224.5 600.446 1260.6 C 584.097 1269.26 550.804 1268.27 532.307 1267.51 L 531.754 1256.27 C 511.483 1279.12 454.036 1275.22 429.821 1261.58 C 429.12 1246.58 429.75 1226.05 429.764 1210.48 L 429.735 1112.79 L 429.341 1031.05 C 429.27 1016.12 428.817 996.128 429.82 981.565 C 429.499 978.142 429.73 974.088 429.735 970.559 C 429.658 969.759 429.589 968.958 429.528 968.157 L 429.026 937.563 z" fill="rgb(13,6,52)" transform="translate(0,0)"></path>
<path d="M 429.026 937.563 C 460.314 920.422 494.632 927.783 525.915 940.421 C 533.006 1026.02 589.23 1051.11 666.3 1065.74 C 629.908 1082.18 608.214 1099.7 593.546 1138.27 C 592.359 1141.44 591.234 1144.64 590.173 1147.86 C 567.436 1136.22 553.311 1129.65 531.811 1115.41 C 531.748 1119.66 531.727 1123.91 531.748 1128.16 L 531.072 1114.78 C 479.295 1081.02 447.325 1043.38 433.051 982.898 C 432.9 979.318 432.188 976.566 432.005 972.701 L 429.735 970.559 C 429.658 969.759 429.589 968.958 429.528 968.157 L 429.026 937.563 z" fill="rgb(242,153,75)" transform="translate(0,0)"></path>
<path d="M 429.528 968.157 C 429.682 966.945 429.982 962.752 430.477 961.778 C 430.688 962.237 431.923 971.775 432.005 972.701 L 429.735 970.559 C 429.658 969.759 429.589 968.958 429.528 968.157 z" fill="rgb(117,65,41)" transform="translate(0,0)"></path>
<path d="M 531.748 1128.16 C 531.727 1123.91 531.748 1119.66 531.811 1115.41 C 553.311 1129.65 567.436 1136.22 590.173 1147.86 C 578.395 1186.67 581.494 1224.5 600.446 1260.6 C 584.097 1269.26 550.804 1268.27 532.307 1267.51 L 531.754 1256.27 C 531.995 1213.57 531.993 1170.86 531.748 1128.16 z" fill="rgb(255,255,255)" transform="translate(0,0)"></path>
<path d="M 429.735 970.559 L 432.005 972.701 C 432.188 976.566 432.9 979.318 433.051 982.898 C 429.864 982.032 430.939 986.375 430.747 989.139 L 430.716 989.152 L 430.607 989.099 C 430.376 986.433 430.168 984.242 429.82 981.565 C 429.499 978.142 429.73 974.088 429.735 970.559 z" fill="rgb(8,3,8)" transform="translate(0,0)"></path>
<path d="M 1235.88 274.75 C 1301.64 271.468 1359.72 286.822 1419.73 312.72 C 1429.05 316.744 1450.99 326.142 1459.05 331.06 C 1448.16 331.849 1438.06 333.066 1429.03 339.766 C 1398.23 362.64 1394 399.191 1420.92 426.851 C 1413.82 424.015 1392.01 411.259 1384.06 406.894 C 1353.62 421.841 1338.46 443.794 1340.54 478.379 C 1304.38 464.211 1269.64 457.66 1231.33 453.451 L 1234.52 453.28 C 1237.09 451.056 1246.58 415.568 1251.36 407.767 C 1254.07 403.329 1269.36 377.123 1270.18 374.349 C 1267.91 368.676 1266 362.864 1264.47 356.948 C 1257.2 329.649 1260 299.444 1274.16 274.767 C 1261.4 274.903 1248.64 274.898 1235.88 274.75 z" fill="rgb(242,153,75)" transform="translate(0,0)"></path>
<path d="M 429.821 1261.58 C 454.036 1275.22 511.483 1279.12 531.754 1256.27 L 532.307 1267.51 C 550.804 1268.27 584.097 1269.26 600.446 1260.6 C 622.92 1293.82 643.896 1309.75 681.029 1323.96 L 680.849 1334.05 C 671.087 1337.63 661.716 1345.39 652.016 1348.85 C 613.105 1362.76 573.76 1365.11 532.892 1365.08 C 532.706 1376.15 532.665 1387.22 532.768 1398.29 C 531.649 1388.72 532.174 1374.64 532.29 1364.71 C 498.424 1363.87 463.088 1364.19 429.109 1364.03 C 430.932 1333.61 429.836 1292.47 429.821 1261.58 z" fill="rgb(242,153,75)" transform="translate(0,0)"></path>
<path d="M 1582.63 574.638 C 1604.11 605.711 1621.17 642.966 1634.79 678.099 C 1649.17 724.338 1660.06 762.418 1661.95 811.691 C 1636.88 805.202 1615.14 801.892 1589.44 798.592 C 1585.49 779.57 1584 760.343 1579.27 740.094 C 1567.82 691.046 1550.32 654.548 1526.48 611.1 C 1550.55 600.429 1562.75 590.753 1582.63 574.638 z" fill="rgb(255,255,255)" transform="translate(0,0)"></path>
<path d="M 868.475 1260.51 C 869.66 1257.62 870.43 1254.62 872.79 1252.79 C 889.217 1252.18 907.719 1252.8 924.303 1252.88 L 1010.65 1252.96 L 1059.37 1252.93 C 1067.24 1252.91 1081.76 1252.05 1089.05 1253.69 C 1118.26 1260.23 1137.17 1282.06 1140.58 1311.01 L 1139.78 1315.37 C 1135.31 1316.7 1122.11 1315.19 1116.62 1315.39 C 1099.42 1316 1062.14 1313.2 1046.64 1315.76 C 1008.26 1317.62 993.253 1320.47 956.828 1333.45 C 927.417 1308.52 898.069 1284.94 868.475 1260.51 z" fill="rgb(255,255,255)" transform="translate(0,0)"></path>
<path d="M 955.651 1082.82 C 990.704 1095.12 1017.1 1092.85 1053.5 1092.78 C 1083.99 1092.68 1114.48 1092.74 1144.96 1092.98 L 1171.85 1093.04 C 1165.88 1101.56 1159.84 1108.05 1154 1117.19 C 1145.52 1130.44 1139.19 1143.82 1131.72 1157.58 C 1101.32 1145.95 1052.95 1149.23 1019.64 1149.17 L 871.603 1149.14 L 866.471 1132.62 C 895.895 1125.65 934.233 1104.2 955.651 1082.82 z" fill="rgb(255,255,255)" transform="translate(0,0)"></path>
<path d="M 1343.75 670.296 C 1341.59 645.093 1343.07 617.213 1374.83 610.28 C 1383.75 608.333 1395.2 613.632 1402.35 619.273 C 1439.99 648.944 1461.97 698.469 1476.65 743.027 C 1482.25 760.693 1485.75 783.839 1488.56 801.72 C 1469.69 805.363 1450.61 813.109 1432.56 819.978 C 1432.51 819.291 1432.44 818.606 1432.37 817.921 C 1428.22 779.693 1409.14 736.191 1383.87 707.273 C 1371.48 693.084 1358.29 681.961 1343.75 670.296 z" fill="rgb(255,255,255)" transform="translate(0,0)"></path>
<path d="M 532.892 1365.08 C 573.76 1365.11 613.105 1362.76 652.016 1348.85 C 661.716 1345.39 671.087 1337.63 680.849 1334.05 L 680.949 1372.17 C 680.996 1398.05 681.686 1415.76 662.469 1435.8 C 636.464 1462.91 577.125 1466.06 550.473 1439.06 C 539.661 1428.17 533.341 1413.62 532.768 1398.29 C 532.665 1387.22 532.706 1376.15 532.892 1365.08 z" fill="rgb(255,255,255)" transform="translate(0,0)"></path>
<path d="M 1384.06 406.894 C 1392.01 411.259 1413.82 424.015 1420.92 426.851 C 1453.59 446.779 1488.65 468.461 1516.89 494.539 C 1497.47 511.606 1483.16 523.591 1459.08 534.366 C 1443.35 526.974 1427.79 517.643 1412.35 509.458 C 1396.49 501.214 1380.26 493.724 1363.7 487.012 C 1358.47 484.892 1345.58 479.677 1340.54 478.379 C 1338.46 443.794 1353.62 421.841 1384.06 406.894 z" fill="rgb(255,255,255)" transform="translate(0,0)"></path>
<path d="M 868.475 1260.51 C 898.069 1284.94 927.417 1308.52 956.828 1333.45 C 924.464 1348.35 902.445 1363.72 881.495 1393.17 C 858.943 1373.39 815.347 1336.67 790.644 1322 C 823.471 1312.16 851.307 1290.17 868.475 1260.51 z" fill="rgb(242,153,75)" transform="translate(0,0)"></path>
<path d="M 1144.93 722.041 C 1145.36 692.769 1144.54 663.383 1144.85 634.101 C 1144.9 628.756 1144.77 623.575 1145.44 618.254 L 1145.79 621.465 C 1149.09 623.974 1205.36 622.329 1214.05 622.571 C 1222.46 622.758 1230.85 623.527 1239.15 624.873 C 1231.19 661.983 1234.56 704.245 1261.89 732.797 C 1257.51 731.511 1253.18 729.364 1248.68 728.076 C 1216.13 718.765 1178.9 722.098 1144.93 722.041 z" fill="rgb(242,153,75)" transform="translate(0,0)"></path>
<path d="M 784.889 1547.19 C 811.686 1556.78 826.984 1556.85 853.453 1560.05 C 855.775 1629.89 860.812 1679.51 785.354 1711.8 C 784.47 1682.03 785.353 1652.22 784.952 1622.43 C 784.853 1615.12 785.034 1607.79 784.202 1600.51 C 785.339 1584.22 784.855 1563.8 784.889 1547.19 z" fill="rgb(255,255,255)" transform="translate(0,0)"></path>
<path d="M 1140.58 1311.01 C 1141.27 1344.86 1140.17 1381.49 1140.22 1415.8 C 1112.79 1415.67 1082.02 1417.01 1055.18 1415.94 L 1056.65 1414.03 C 1059.7 1394.32 1062.47 1334.4 1055.71 1316.59 C 1053.11 1315.28 1049.7 1315.72 1046.64 1315.76 C 1062.14 1313.2 1099.42 1316 1116.62 1315.39 C 1122.11 1315.19 1135.31 1316.7 1139.78 1315.37 L 1140.58 1311.01 z" fill="rgb(242,153,75)" transform="translate(0,0)"></path>
<path d="M 790.644 1322 C 815.347 1336.67 858.943 1373.39 881.495 1393.17 C 866.717 1413.48 860.041 1435.9 855.583 1460.1 C 829.392 1460.26 805.706 1451.69 792.901 1427.2 C 789.745 1421.02 787.722 1414.33 786.931 1407.43 C 786.2 1401.53 785.572 1327.15 786.754 1323.53 L 790.644 1322 z" fill="rgb(255,255,255)" transform="translate(0,0)"></path>
<path d="M 786.009 1063.51 C 785.905 1002.04 776.974 959.975 852.902 948.424 C 853.144 976.507 862.524 998.82 877.081 1022.23 C 861.048 1054.41 827.346 1058.44 796.738 1066.42 L 786.009 1063.51 z" fill="rgb(255,255,255)" transform="translate(0,0)"></path>
<path d="M 877.081 1022.23 C 899.19 1051.2 920.637 1070.27 955.651 1082.82 C 934.233 1104.2 895.895 1125.65 866.471 1132.62 C 864.847 1128.05 862.896 1123.6 860.634 1119.3 C 847.341 1093.78 824.298 1074.71 796.738 1066.42 C 827.346 1058.44 861.048 1054.41 877.081 1022.23 z" fill="rgb(242,153,75)" transform="translate(0,0)"></path>
<path d="M 1145.44 618.254 C 1147.4 603.574 1149.61 593.373 1157.94 580.987 C 1181.24 546.332 1221.53 554.201 1257 558.915 C 1261.94 559.573 1267.44 560.357 1272.43 561.431 C 1257.45 581.946 1244.83 599.43 1239.15 624.873 C 1230.85 623.527 1222.46 622.758 1214.05 622.571 C 1205.36 622.329 1149.09 623.974 1145.79 621.465 L 1145.44 618.254 z" fill="rgb(255,255,255)" transform="translate(0,0)"></path>
<path d="M 728.739 1147.17 C 758.257 1144.45 784.387 1166.18 787.095 1195.7 C 789.803 1225.22 768.064 1251.34 738.545 1254.04 C 709.04 1256.73 682.933 1235.01 680.226 1205.5 C 677.519 1176 699.236 1149.88 728.739 1147.17 z" fill="rgb(13,178,255)" transform="translate(0,0)"></path>
<metadata><recraft-signature>{"signed_by": "recraft", "signature_b64": "9P+h+sJS6ZW5KgqZmzXtQ7Gt1+R2zh1nOwU2XXTMeBEtIhx2JqnRKhQ0Z0peM6Z6NZvch1k1gk397o+z6QcMDQ==", "signing_algo": "Ed25519", "generation_timestamp": 1776764288, "identifier": "65958bc5-8dba-48a5-a6c2-68d93db46c15"}</recraft-signature></metadata></svg>